# xmcd
#
# Track frame offsets: 
#        150
#        12422
#        23326
#        33409
#        45869
#        57555
#        68359
#        79381
#        88810
#        98766
#        107838
#        118785
#        127938
#        137050
#        148423
#        160246
#        170827
#        183128
#        193785
#        203947
#        216305
#        225338
#        235455
#        248565
#        258868
#        270109
#        283547
#        292128
#        302940
#        312024
#        320844
#        329830
#
# Disc length: 4555 seconds
#
# Revision: 0
# Processed by: cddbd v1.5.2PL0 Copyright (c) Steve Scherf et al.
# Submitted via: ExactAudioCopyFreeDBPlugin 1.0
#
DISCID=d511c920
DTITLE=Loretta Lynn - Blue Kentucky Girl - I Like 'em Country
DYEAR=2013
DGENRE=Country
TTITLE0=Blue Kentucky Girl
TTITLE1=Then And Only Then
TTITLE2=I Still Miss Someone
TTITLE3=Night Girl
TTITLE4=Love’s Been Here And Gone
TTITLE5=Farther To Go
TTITLE6=The Race Is On
TTITLE7=I Won't Forget You
TTITLE8=Two Steps Forward
TTITLE9=Send Me The Pillow You Dream On
TTITLE10=The Beginning Of The End
TTITLE11=Today
TTITLE12=Two Mules Pull This Wagon
TTITLE13=It's Been So Long, Darling
TTITLE14=Sometimes You Just Can't Win
TTITLE15=If Teardrops Were Pennies
TTITLE16=Your Cheatin' Heart
TTITLE17=Go On And Go
TTITLE18=Cry, Cry, Cry
TTITLE19=The Home You’re Tearin' Down
TTITLE20=Hurtin' For Ceratin
TTITLE21=Today Has Been A Day
TTITLE22=Jealous Heart
TTITLE23=Dear Uncle Sam
TTITLE24=Put It Off Until Tomorrow
TTITLE25=God Gave Me A Heart To Forgive
TTITLE26=Keep Your Change
TTITLE27=Someone Before Me
TTITLE28=A Man I Hardly Knew
TTITLE29=Tippy Toeing
TTITLE30=It's Another World
TTITLE31=If You're Not Gone Too Long
EXTD=
EXTT0=
EXTT1=
EXTT2=
EXTT3=
EXTT4=
EXTT5=
EXTT6=
EXTT7=
EXTT8=
EXTT9=
EXTT10=
EXTT11=
EXTT12=
EXTT13=
EXTT14=
EXTT15=
EXTT16=
EXTT17=
EXTT18=
EXTT19=
EXTT20=
EXTT21=
EXTT22=
EXTT23=
EXTT24=
EXTT25=
EXTT26=
EXTT27=
EXTT28=
EXTT29=
EXTT30=
EXTT31=
PLAYORDER=
